<?xml version="1.0" standalone="no"?>
<!DOCTYPE svg PUBLIC "-//W3C//DTD SVG 20010904//EN"
 "http://www.w3.org/TR/2001/REC-SVG-20010904/DTD/svg10.dtd">
<svg version="1.0" xmlns="http://www.w3.org/2000/svg"
 width="1998.000000pt" height="1209.000000pt" viewBox="0 0 1998.000000 1209.000000"
 preserveAspectRatio="xMidYMid meet">

<g transform="translate(0.000000,1209.000000) scale(0.100000,-0.100000)">
<path d="M10315 8923 c-39 -9 -155 -17 -330 -23 -148 -4 -290 -13 -315 -19
-25 -6 -124 -13 -220 -17 -96 -4 -184 -11 -194 -17 -11 -5 -94 -14 -185 -18
-91 -5 -175 -15 -186 -21 -11 -7 -85 -15 -165 -18 -96 -5 -159 -13 -185 -23
-26 -11 -72 -16 -133 -17 -62 0 -105 -5 -130 -16 -21 -9 -78 -18 -132 -21 -52
-3 -106 -11 -120 -18 -14 -7 -61 -16 -105 -19 -44 -4 -100 -13 -125 -21 -25
-7 -80 -16 -123 -18 -43 -3 -85 -11 -93 -18 -8 -7 -52 -14 -97 -16 -45 -3 -98
-12 -117 -20 -19 -9 -62 -20 -95 -24 -33 -4 -85 -15 -115 -23 -30 -9 -68 -16
-86 -16 -17 0 -44 -6 -60 -14 -16 -8 -57 -17 -91 -20 -35 -4 -75 -13 -90 -21
-16 -8 -48 -15 -73 -15 -25 0 -65 -9 -89 -20 -24 -11 -61 -20 -84 -20 -22 0
-48 -6 -56 -14 -9 -8 -43 -19 -76 -25 -84 -14 -184 -40 -223 -57 -18 -8 -45
-14 -60 -14 -15 0 -47 -9 -71 -20 -24 -11 -54 -20 -67 -20 -13 0 -41 -9 -61
-20 -21 -11 -51 -20 -68 -20 -17 0 -40 -7 -52 -15 -11 -8 -40 -17 -64 -21 -24
-3 -54 -13 -66 -20 -12 -8 -33 -14 -45 -14 -13 0 -43 -9 -67 -20 -24 -11 -51
-20 -60 -20 -9 0 -34 -9 -56 -20 -22 -11 -49 -20 -61 -20 -12 0 -27 -7 -34
-15 -6 -7 -31 -17 -55 -21 -25 -3 -49 -12 -55 -19 -6 -8 -24 -17 -40 -20 -16
-3 -31 -13 -34 -21 -3 -8 -19 -14 -41 -14 -19 0 -35 -5 -35 -10 0 -11 77 -3
95 10 6 4 37 12 70 19 33 7 74 17 90 23 17 5 53 14 80 20 28 5 64 16 82 24 17
7 45 14 63 14 17 0 44 7 59 15 16 8 53 19 82 24 30 5 72 16 94 25 22 8 56 15
76 16 20 0 49 7 65 15 16 8 57 17 89 21 33 3 70 13 82 20 12 8 38 14 56 14 19
0 63 9 97 20 34 11 81 20 104 20 22 0 65 9 94 20 29 11 71 20 95 20 23 1 67 9
97 20 30 11 75 20 100 20 25 0 63 7 85 14 22 8 76 17 120 21 44 4 86 12 92 17
7 6 57 14 110 19 54 4 120 15 147 23 27 9 77 16 111 16 34 0 84 7 111 15 27 8
98 19 157 25 59 5 111 11 115 14 4 2 55 9 112 15 58 6 155 18 215 26 149 20
408 45 585 55 80 5 202 16 272 24 69 9 167 16 216 16 49 0 204 8 343 18 212
14 397 17 1114 17 639 0 890 -4 975 -13 63 -8 225 -17 360 -21 138 -5 257 -13
273 -20 15 -6 105 -14 200 -17 95 -3 199 -12 232 -19 33 -7 116 -16 185 -20
69 -4 157 -13 195 -20 39 -7 109 -16 157 -20 48 -3 113 -13 143 -21 31 -7 82
-14 114 -14 32 0 93 -9 136 -20 43 -11 99 -20 124 -20 25 0 75 -9 111 -20 36
-11 91 -20 123 -20 32 0 73 -6 92 -14 19 -8 67 -18 107 -22 40 -4 84 -12 98
-19 14 -7 56 -15 94 -19 38 -4 80 -13 95 -20 14 -7 55 -16 90 -20 36 -3 75
-13 87 -21 13 -8 41 -15 63 -15 22 0 63 -9 91 -20 28 -11 67 -20 88 -20 20 0
49 -6 63 -14 14 -7 48 -17 75 -21 27 -4 61 -13 76 -21 15 -8 39 -14 53 -14 14
0 44 -9 68 -19 23 -11 63 -22 88 -26 26 -3 55 -12 65 -20 11 -8 33 -15 49 -15
17 0 50 -9 74 -20 24 -11 52 -20 63 -20 11 0 34 -6 51 -13 55 -23 131 -48 170
-56 21 -5 45 -15 55 -23 9 -9 34 -18 56 -21 21 -3 46 -13 56 -22 9 -8 25 -15
34 -15 10 0 30 -7 44 -15 15 -8 46 -19 70 -25 23 -6 42 -15 42 -20 0 -6 11
-10 25 -10 13 0 32 -8 42 -19 10 -10 35 -21 57 -24 21 -3 46 -13 56 -22 9 -8
26 -15 37 -15 11 0 26 -7 33 -15 7 -8 19 -15 26 -15 8 0 22 -8 32 -17 18 -18
49 -32 132 -61 25 -8 52 -21 61 -29 8 -7 23 -13 32 -13 9 0 19 -5 23 -11 3 -6
21 -18 38 -26 63 -29 91 -46 99 -60 4 -7 17 -13 27 -13 11 0 25 -9 32 -20 7
-11 21 -20 31 -20 9 0 25 -9 34 -20 10 -11 24 -20 33 -20 9 0 23 -9 33 -20 9
-11 23 -20 32 -20 8 0 19 -9 25 -20 6 -11 16 -20 23 -20 7 0 24 -12 38 -27 35
-37 79 -73 89 -73 5 0 21 -11 36 -25 15 -14 32 -25 39 -25 7 0 18 -13 24 -29
7 -15 23 -33 37 -39 13 -7 24 -16 24 -22 0 -5 13 -16 29 -25 16 -8 32 -24 36
-35 3 -11 18 -25 33 -32 15 -7 28 -22 30 -34 2 -11 16 -28 31 -37 17 -10 31
-28 34 -45 3 -17 16 -33 30 -39 15 -7 26 -23 31 -43 3 -18 19 -48 36 -67 22
-25 30 -44 30 -73 0 -29 5 -40 19 -45 26 -8 39 -48 43 -132 3 -60 8 -76 28
-98 24 -26 25 -32 25 -160 0 -126 -1 -135 -25 -167 -19 -26 -25 -49 -30 -115
-4 -72 -8 -85 -33 -110 -18 -19 -27 -40 -27 -61 0 -20 -10 -43 -29 -65 -16
-18 -33 -45 -37 -61 -3 -15 -17 -34 -29 -42 -13 -9 -28 -28 -33 -44 -6 -16
-22 -36 -36 -45 -14 -10 -26 -23 -26 -30 0 -7 -13 -25 -30 -38 -16 -14 -30
-30 -30 -36 0 -5 -13 -19 -29 -31 -17 -11 -33 -29 -36 -40 -4 -11 -19 -27 -34
-34 -14 -8 -33 -26 -40 -40 -8 -14 -22 -28 -33 -32 -10 -3 -18 -11 -18 -19 0
-7 -16 -23 -35 -35 -19 -12 -35 -25 -35 -29 0 -18 15 -19 39 -2 14 10 42 26
61 35 42 20 94 49 135 76 17 11 41 25 55 32 39 19 152 99 181 127 33 33 76 68
128 106 23 16 48 39 56 52 9 13 19 23 24 23 11 0 91 77 91 88 0 4 15 22 33 40
17 17 44 46 59 64 16 18 44 51 63 72 19 22 35 44 35 51 0 6 14 24 30 40 17 16
30 39 30 52 0 12 14 38 30 56 17 20 30 46 30 62 0 16 12 38 30 57 25 25 30 37
30 78 0 71 18 145 41 166 28 25 28 173 -1 212 -22 31 -39 99 -40 160 0 31 -8
53 -30 84 -17 23 -30 54 -30 70 0 20 -10 39 -30 58 -18 17 -30 38 -30 54 0 17
-10 33 -30 47 -16 12 -32 34 -35 50 -4 15 -15 29 -26 32 -10 3 -26 21 -34 41
-9 20 -22 36 -31 36 -9 0 -21 14 -27 30 -6 17 -20 33 -29 36 -10 3 -26 16 -34
30 -9 13 -22 24 -29 24 -7 0 -22 16 -34 35 -11 19 -27 35 -34 35 -8 0 -22 9
-32 20 -10 11 -24 20 -32 20 -7 0 -18 10 -24 23 -12 26 -101 92 -166 122 -18
8 -33 19 -33 23 0 4 -12 13 -27 20 -53 24 -88 45 -96 59 -4 7 -16 13 -26 13
-10 0 -26 9 -36 20 -10 11 -26 20 -36 20 -10 0 -22 6 -26 13 -4 7 -19 18 -33
25 -59 30 -86 46 -98 59 -7 7 -19 13 -26 13 -7 0 -21 9 -31 20 -10 11 -28 20
-39 20 -12 0 -38 9 -59 19 -20 10 -48 22 -62 25 -14 4 -25 10 -25 15 0 5 -13
12 -29 16 -16 3 -35 12 -41 20 -6 7 -29 16 -50 20 -21 4 -44 13 -51 21 -6 8
-22 14 -35 14 -13 0 -31 8 -41 19 -10 10 -37 21 -61 24 -24 3 -51 12 -61 21
-10 9 -26 16 -37 16 -10 0 -27 7 -38 15 -10 8 -39 17 -63 21 -25 4 -47 12 -49
19 -3 7 -27 15 -54 19 -26 4 -53 13 -60 21 -7 8 -23 15 -37 15 -13 0 -40 7
-61 16 -20 9 -53 20 -72 25 -34 8 -106 29 -165 50 -16 6 -49 15 -72 20 -24 4
-55 15 -70 22 -16 8 -54 18 -85 21 -31 4 -62 14 -69 22 -7 8 -30 14 -58 14
-26 0 -56 6 -67 14 -12 8 -45 18 -75 22 -30 3 -68 12 -85 19 -17 7 -55 16 -85
20 -30 4 -63 13 -74 19 -11 7 -53 16 -94 19 -45 4 -80 12 -90 22 -12 10 -38
15 -82 15 -39 0 -76 6 -94 16 -16 9 -67 19 -112 23 -46 5 -88 13 -95 18 -7 6
-51 14 -97 18 -47 4 -101 13 -120 20 -20 7 -72 16 -117 18 -46 3 -94 12 -112
21 -21 11 -58 16 -119 16 -61 1 -105 7 -143 20 -39 14 -83 20 -150 20 -52 0
-113 5 -135 11 -22 6 -98 15 -170 20 -71 5 -161 16 -200 24 -38 8 -140 17
-225 20 -85 3 -175 10 -200 16 -25 6 -162 15 -305 19 -174 6 -283 14 -330 24
-61 14 -184 16 -990 15 -770 -1 -930 -3 -980 -16z"/>
<path d="M4709 8057 c-35 -11 -102 -33 -149 -49 -47 -16 -102 -34 -124 -39
-21 -5 -50 -16 -65 -23 -14 -7 -44 -17 -65 -20 -22 -4 -49 -14 -60 -22 -11 -8
-29 -14 -39 -14 -19 0 -100 -30 -150 -56 -16 -8 -36 -14 -45 -14 -8 0 -34 -8
-56 -18 -23 -10 -68 -29 -101 -41 -33 -12 -77 -31 -97 -41 -20 -11 -42 -20
-48 -20 -13 0 -49 -15 -165 -70 -44 -21 -100 -45 -125 -54 -25 -9 -72 -32
-105 -50 -33 -18 -136 -72 -230 -120 -414 -209 -796 -500 -1000 -761 -268
-342 -316 -713 -137 -1059 551 -1069 3183 -1879 6662 -2051 759 -38 1939 -40
2610 -5 520 27 866 51 1260 85 286 25 566 56 910 99 981 125 1948 309 2560
487 58 16 125 35 150 41 25 6 50 14 55 19 6 4 31 11 55 15 25 4 56 12 70 19
14 7 46 15 71 19 26 4 55 13 65 21 11 8 33 15 49 15 17 0 47 9 68 20 20 11 47
20 59 20 13 0 43 9 67 20 24 11 52 20 63 20 11 0 34 6 51 14 18 8 48 19 67 25
60 17 124 41 152 56 14 8 36 15 47 15 12 0 38 9 58 20 21 11 45 20 54 20 17 0
95 31 141 56 14 7 34 14 44 14 10 0 36 8 58 19 23 10 50 22 61 27 16 7 14 9
-17 12 -20 2 -50 -4 -67 -12 -16 -9 -42 -16 -56 -16 -15 0 -47 -9 -73 -19 -26
-11 -74 -22 -106 -25 -33 -4 -65 -11 -71 -16 -7 -6 -34 -13 -61 -16 -27 -3
-65 -12 -84 -19 -20 -7 -62 -16 -95 -20 -33 -4 -71 -13 -85 -20 -14 -7 -55
-15 -92 -18 -37 -3 -80 -12 -95 -20 -15 -8 -57 -17 -93 -20 -36 -3 -82 -13
-102 -21 -21 -9 -59 -16 -86 -16 -27 0 -68 -7 -91 -14 -22 -8 -69 -18 -103
-21 -35 -4 -85 -13 -113 -20 -27 -7 -83 -16 -122 -19 -40 -3 -90 -12 -110 -20
-21 -8 -79 -17 -130 -20 -51 -4 -108 -13 -127 -21 -20 -8 -66 -15 -103 -15
-37 0 -104 -9 -148 -20 -44 -11 -107 -20 -140 -20 -34 0 -85 -6 -115 -14 -30
-8 -106 -17 -169 -21 -62 -4 -134 -13 -160 -20 -25 -7 -104 -16 -174 -20 -71
-4 -150 -13 -175 -20 -26 -7 -114 -15 -197 -18 -82 -3 -179 -12 -215 -20 -37
-9 -147 -17 -255 -21 -104 -3 -206 -10 -225 -16 -19 -6 -168 -15 -330 -20
-162 -5 -326 -15 -365 -21 -102 -18 -2453 -18 -2545 0 -36 6 -182 16 -326 21
-143 4 -278 13 -300 19 -23 6 -133 15 -245 20 -112 5 -220 15 -239 21 -19 6
-100 13 -180 16 -80 4 -166 12 -192 19 -25 8 -100 16 -165 20 -65 3 -145 13
-178 21 -33 8 -107 18 -165 23 -58 5 -125 14 -150 20 -25 5 -70 10 -101 11
-30 0 -89 9 -130 20 -41 11 -102 20 -137 20 -36 0 -75 6 -92 15 -16 8 -68 18
-117 21 -48 4 -103 13 -122 20 -18 8 -66 17 -105 20 -39 4 -79 11 -90 16 -10
6 -57 16 -105 23 -47 7 -104 18 -126 24 -41 10 -92 21 -223 46 -40 8 -93 21
-118 30 -25 8 -58 15 -75 15 -17 0 -40 5 -52 12 -12 6 -51 17 -87 24 -71 14
-128 28 -205 52 -27 8 -68 18 -90 23 -22 4 -62 15 -90 24 -97 33 -111 37 -165
49 -30 7 -64 17 -75 23 -11 6 -37 13 -57 17 -20 4 -50 13 -65 21 -15 8 -38 15
-51 15 -12 0 -39 9 -59 20 -21 11 -52 20 -69 20 -17 0 -37 7 -44 15 -7 8 -28
17 -49 21 -20 3 -49 12 -66 19 -103 45 -129 55 -144 55 -9 0 -47 16 -85 35
-38 19 -83 37 -99 41 -16 3 -57 20 -91 38 -33 17 -88 41 -121 54 -71 27 -144
62 -165 79 -8 6 -58 33 -110 58 -170 85 -257 137 -390 236 -41 31 -86 62 -99
69 -32 16 -40 23 -114 93 -34 31 -67 57 -74 57 -7 0 -18 10 -24 22 -13 25 -75
85 -101 99 -10 5 -21 21 -24 35 -4 13 -19 31 -35 40 -18 9 -29 23 -29 35 0 11
-13 32 -29 47 -16 15 -34 44 -41 65 -6 20 -18 37 -25 37 -19 0 -31 26 -38 79
-4 29 -14 52 -30 66 -21 20 -25 36 -33 126 -11 133 -11 227 0 363 8 92 13 112
32 133 25 27 29 36 38 95 4 22 15 42 30 52 14 8 27 29 31 46 4 17 20 45 36 61
16 16 29 39 29 50 0 11 10 24 25 31 13 6 29 24 34 39 6 16 21 33 34 38 14 5
27 21 31 35 3 14 19 32 34 40 15 8 47 37 72 65 24 28 49 51 55 51 5 0 21 12
34 25 13 14 27 25 32 25 5 0 14 11 19 25 5 14 20 29 33 34 12 5 29 16 36 25 7
9 17 16 22 16 9 0 35 18 214 143 92 65 211 134 340 200 137 69 159 81 167 92
4 5 22 14 39 20 63 22 5 23 -62 2z"/>
<path d="M5038 7913 c12 -2 32 -2 45 0 12 2 2 4 -23 4 -25 0 -35 -2 -22 -4z"/>
<path d="M7326 6866 c-33 -17 -67 -43 -75 -57 -9 -14 -24 -38 -35 -53 -27 -38
-20 -150 12 -172 12 -8 22 -26 22 -39 0 -35 20 -74 42 -81 14 -4 18 -13 16
-36 -2 -26 -9 -33 -41 -44 -45 -16 -137 -93 -137 -115 0 -9 -11 -28 -25 -43
-30 -32 -39 -79 -32 -158 4 -46 11 -66 31 -87 14 -15 26 -36 26 -47 0 -28 79
-100 120 -109 19 -4 44 -14 55 -21 13 -10 51 -14 120 -14 69 0 107 4 120 14
11 7 35 17 53 21 19 4 48 19 65 34 81 68 106 82 127 71 11 -6 23 -22 26 -35 3
-13 14 -27 25 -30 10 -4 28 -20 40 -36 l21 -30 96 3 c89 3 97 5 97 23 0 17 -9
21 -49 26 -34 3 -53 11 -60 24 -6 10 -36 43 -67 74 -31 31 -61 65 -67 76 -17
34 0 160 26 187 12 13 27 47 33 76 11 46 18 55 55 77 23 14 53 25 66 25 29 0
55 16 44 27 -4 4 -62 8 -129 8 l-122 0 -5 -149 c-5 -137 -7 -149 -25 -156 -24
-9 -65 5 -65 22 0 6 -29 40 -65 74 -36 34 -65 66 -65 71 0 4 -10 13 -22 18
-13 6 -29 22 -35 36 -7 15 -24 34 -38 43 -28 18 -25 32 8 47 12 6 40 21 62 34
22 14 49 29 60 34 11 5 37 25 58 44 l37 35 0 109 0 110 -37 32 c-71 59 -107
71 -213 70 -87 -1 -100 -4 -154 -33z m234 -40 c8 -7 27 -17 43 -24 27 -11 27
-12 27 -107 l0 -96 -47 -48 c-50 -50 -108 -87 -131 -82 -7 1 -30 19 -51 39
-30 29 -42 51 -55 106 -28 112 -9 173 67 211 53 26 114 26 147 1z m-112 -538
c21 -19 45 -46 55 -61 9 -15 24 -27 33 -27 8 0 21 -15 29 -33 7 -18 25 -38 39
-45 14 -6 26 -18 26 -26 0 -8 13 -25 29 -38 44 -35 54 -61 36 -94 -7 -15 -26
-33 -42 -40 -15 -8 -35 -18 -43 -23 -44 -28 -92 -44 -150 -48 -56 -4 -72 -2
-110 19 -36 19 -84 47 -109 64 -1 2 -10 36 -17 76 -12 59 -12 89 -3 157 11 81
13 86 59 132 69 69 78 69 168 -13z"/>
<path d="M15060 6881 c-67 -25 -118 -60 -126 -84 -3 -12 -18 -32 -33 -44 -25
-20 -26 -25 -26 -126 0 -102 1 -107 28 -134 15 -16 27 -35 27 -43 0 -16 87
-100 104 -100 7 0 17 -5 23 -11 15 -15 123 -59 144 -59 9 0 28 -9 42 -20 14
-11 29 -20 33 -20 4 0 16 -7 26 -17 10 -9 28 -21 40 -27 16 -8 25 -25 31 -56
8 -47 4 -183 -8 -211 -3 -9 -28 -30 -54 -48 -46 -29 -54 -31 -144 -31 l-96 0
-49 49 c-42 42 -50 57 -56 100 -9 72 -15 81 -45 81 -43 0 -51 -17 -51 -103 0
-78 1 -80 36 -112 82 -75 277 -100 399 -51 33 14 76 38 95 53 19 16 42 32 51
35 9 4 19 23 22 45 4 22 16 48 27 58 16 15 20 31 20 87 0 37 -4 68 -10 68 -13
0 -40 54 -40 79 0 11 -9 22 -20 26 -11 3 -27 16 -37 28 -22 27 -90 72 -123 81
-28 8 -105 46 -165 81 -22 13 -50 29 -62 36 -13 7 -25 21 -29 32 -3 11 -18 31
-32 44 -20 18 -26 36 -30 78 -4 47 -1 57 20 77 13 13 32 36 41 51 10 15 26 31
35 34 9 3 24 12 33 20 25 21 129 20 164 -2 83 -53 104 -76 107 -119 3 -39 5
-41 38 -44 43 -4 60 16 60 75 0 39 -5 49 -46 88 -25 25 -56 45 -67 45 -12 1
-33 7 -47 15 -35 20 -191 17 -250 -4z"/>
<path d="M15920 6885 c-14 -8 -36 -14 -49 -15 -13 0 -37 -14 -55 -33 -17 -18
-38 -36 -47 -39 -9 -4 -19 -23 -22 -45 -4 -22 -16 -48 -27 -58 -31 -28 -28
-108 5 -147 17 -21 25 -41 25 -69 0 -29 5 -41 18 -46 9 -4 35 -22 57 -40 22
-19 67 -48 100 -64 65 -32 157 -82 217 -118 20 -12 40 -31 43 -41 3 -11 18
-29 33 -41 24 -18 27 -27 27 -81 0 -49 -4 -63 -21 -77 -12 -10 -29 -32 -38
-49 -9 -18 -23 -32 -30 -32 -7 0 -25 -9 -39 -20 -37 -30 -165 -29 -216 2 -50
30 -111 98 -111 124 0 12 -3 36 -6 54 -7 30 -9 32 -42 26 -45 -7 -52 -18 -52
-89 0 -51 3 -61 28 -85 16 -15 31 -34 34 -42 3 -8 37 -28 76 -43 57 -22 85
-27 158 -27 135 0 286 59 300 117 4 13 15 28 25 33 34 19 52 159 30 236 -24
84 -200 218 -314 239 -20 4 -40 11 -43 16 -3 5 -20 16 -37 23 -61 27 -92 66
-106 135 -12 60 -10 82 10 163 8 32 17 40 67 63 75 35 139 36 208 1 50 -25 50
-26 63 -91 l13 -65 38 0 c33 0 38 3 42 28 3 15 2 50 -1 79 -5 46 -10 55 -44
77 -21 14 -42 26 -46 26 -5 0 -22 7 -37 15 -39 20 -199 20 -234 0z"/>
<path d="M5053 6872 c-57 -6 -41 -23 32 -34 10 -2 29 -19 42 -38 12 -19 31
-44 42 -55 15 -15 22 -43 29 -107 8 -72 14 -91 32 -106 19 -15 24 -33 31 -107
6 -76 11 -93 31 -108 19 -16 24 -32 29 -98 5 -67 10 -84 31 -107 21 -22 26
-39 30 -99 4 -49 12 -81 24 -99 27 -38 31 -45 41 -79 7 -26 14 -30 49 -33 37
-3 42 0 53 27 7 16 19 32 26 35 16 6 35 90 35 156 0 36 5 52 18 62 27 19 42
72 42 149 0 57 3 70 20 82 27 19 40 67 40 144 0 52 4 66 23 83 12 12 29 42 38
68 l16 47 13 -42 c7 -23 24 -52 36 -64 20 -19 24 -33 24 -79 0 -65 15 -115 42
-142 12 -12 18 -33 18 -60 1 -67 18 -125 45 -152 21 -21 25 -34 25 -85 0 -68
10 -101 40 -131 11 -11 20 -31 20 -44 0 -45 10 -56 51 -56 21 0 39 5 39 10 0
6 12 23 26 37 32 32 44 71 44 146 0 50 4 61 26 82 23 21 27 35 33 109 5 67 11
90 28 108 26 29 43 88 43 154 0 38 5 55 20 69 25 23 40 75 40 142 0 38 5 57
19 70 10 10 28 37 40 61 23 46 25 47 84 57 21 3 35 10 33 14 -6 10 -270 22
-308 14 -34 -7 -36 -19 -5 -29 12 -4 39 -18 60 -31 36 -23 37 -24 37 -88 0
-53 -3 -66 -20 -78 -27 -19 -40 -67 -40 -144 0 -55 -3 -63 -27 -81 -23 -17
-27 -27 -33 -106 -5 -68 -11 -91 -28 -109 -25 -27 -41 -92 -42 -168 0 -48 -4
-59 -22 -71 -36 -23 -58 4 -58 73 -1 74 -14 126 -40 154 -17 18 -23 42 -30
111 -6 75 -11 91 -31 107 -21 17 -25 31 -30 102 -4 70 -9 87 -32 114 -22 27
-27 43 -28 89 0 77 -18 124 -52 140 -29 14 -82 9 -93 -9 -3 -5 -9 -51 -14
-101 -7 -74 -13 -95 -29 -108 -23 -17 -40 -83 -41 -156 0 -38 -5 -55 -20 -69
-26 -23 -40 -75 -40 -146 0 -43 -5 -60 -20 -74 -24 -22 -40 -75 -40 -132 0
-23 -7 -58 -16 -76 -16 -33 -17 -34 -34 -17 -31 31 -40 57 -40 117 0 72 -12
115 -39 142 -16 16 -21 34 -21 74 0 65 -12 109 -37 134 -15 15 -21 39 -26 97
-4 61 -11 86 -31 115 -20 29 -26 49 -26 93 l0 57 62 30 c38 18 57 32 48 35
-20 6 -316 13 -357 8z"/>
<path d="M8642 6868 c-10 -12 -2 -18 44 -38 38 -15 58 -30 65 -47 14 -37 12
-846 -2 -877 -12 -25 -63 -56 -92 -56 -20 0 -29 -14 -21 -34 5 -14 48 -16 389
-16 l383 0 7 27 c7 29 5 211 -3 256 -2 15 -11 27 -18 27 -10 0 -14 -16 -14
-61 0 -57 -3 -63 -42 -109 -63 -73 -110 -90 -251 -90 -63 0 -128 5 -146 11
l-31 11 0 454 0 455 24 24 c13 13 43 29 66 35 33 9 40 14 31 23 -8 8 -73 13
-194 15 -150 3 -185 2 -195 -10z"/>
<path d="M10010 6870 c-17 -11 -19 -9 50 -45 30 -15 58 -33 62 -39 4 -6 8
-206 8 -444 l0 -432 -47 -30 c-26 -17 -53 -30 -59 -30 -18 0 -25 -15 -18 -34
5 -14 48 -16 384 -16 292 0 381 3 387 13 13 21 17 217 4 230 -16 16 -65 -42
-84 -98 -11 -33 -22 -45 -63 -65 -45 -23 -60 -25 -194 -25 -187 0 -197 3 -205
58 -12 77 -1 405 13 419 9 9 62 14 180 18 164 5 167 5 170 28 l3 22 -167 0
c-218 0 -204 -14 -204 209 0 130 3 171 15 187 13 19 27 22 141 27 165 7 211
-4 262 -63 25 -30 39 -57 42 -84 6 -45 24 -58 34 -24 11 42 7 203 -6 216 -15
15 -685 17 -708 2z"/>
<path d="M10930 6869 c-24 -10 -24 -11 30 -39 63 -32 100 -64 100 -86 0 -8 16
-30 35 -50 19 -19 35 -44 35 -54 0 -11 14 -34 30 -52 17 -17 30 -39 30 -48 0
-9 14 -29 30 -43 18 -17 30 -37 30 -52 0 -25 31 -65 50 -65 6 0 10 -16 10 -36
0 -27 -7 -42 -30 -62 -17 -15 -30 -36 -30 -49 0 -15 -10 -28 -30 -38 -17 -9
-30 -24 -30 -34 0 -10 -16 -34 -35 -54 -19 -20 -35 -45 -35 -56 0 -11 -13 -29
-30 -41 -19 -14 -30 -30 -30 -46 0 -14 -7 -27 -17 -31 -10 -3 -32 -19 -49 -35
-17 -16 -49 -35 -70 -43 -26 -9 -39 -19 -39 -32 0 -17 11 -18 165 -18 150 0
165 2 168 18 2 12 -7 22 -30 32 -18 8 -46 24 -61 37 l-28 23 30 32 c16 18 32
46 36 62 3 16 17 37 30 45 14 10 27 30 31 51 4 23 17 43 35 56 16 11 29 29 29
39 0 10 13 28 29 39 l29 21 21 -29 c12 -17 30 -33 41 -36 14 -4 22 -19 26 -46
5 -28 15 -46 35 -60 18 -12 29 -29 29 -44 0 -13 13 -36 30 -52 25 -23 30 -36
30 -75 0 -53 -15 -68 -69 -68 -35 0 -48 -15 -31 -35 10 -12 47 -15 191 -15
166 0 179 1 189 19 8 16 5 22 -18 34 -61 32 -92 53 -92 63 0 10 -22 35 -55 62
-8 7 -15 23 -15 35 0 12 -13 37 -30 55 -16 18 -30 41 -30 51 0 9 -13 27 -30
39 -20 15 -30 31 -30 48 0 16 -11 36 -30 52 -17 15 -30 36 -30 49 0 12 -13 38
-30 56 -36 42 -37 51 -6 65 14 6 27 23 31 41 3 16 17 37 30 45 14 9 29 33 35
54 6 26 18 43 35 50 15 7 25 20 25 32 0 11 11 27 24 35 13 9 30 29 36 46 7 16
18 33 25 37 7 4 34 26 61 50 63 56 53 62 -102 62 -134 0 -169 -12 -113 -40 49
-23 54 -38 38 -110 -10 -47 -20 -66 -41 -82 -16 -10 -28 -28 -28 -39 0 -10
-13 -31 -29 -45 -17 -15 -33 -39 -36 -54 -15 -67 -59 -63 -82 7 -9 25 -23 44
-38 51 -17 8 -25 20 -25 36 0 14 -14 41 -30 60 -23 25 -32 48 -37 87 -6 51 -5
54 27 81 19 15 31 31 27 35 -12 12 -320 14 -347 2z"/>
<path d="M11960 6870 c-20 -9 -22 -13 -10 -20 8 -5 27 -10 41 -10 39 0 76 -34
93 -88 21 -65 21 -730 0 -806 -21 -75 -39 -96 -78 -96 -49 0 -65 -8 -59 -31 5
-19 14 -19 232 -17 218 3 226 4 226 23 0 17 -8 21 -50 25 -27 3 -67 16 -87 28
l-38 24 0 164 c0 192 -18 171 160 177 87 2 125 8 155 22 51 25 115 73 115 88
0 6 12 23 26 38 32 33 43 82 44 184 0 84 -14 155 -31 155 -5 0 -17 13 -27 30
-18 28 -51 54 -119 93 -27 15 -69 18 -300 22 -179 4 -276 2 -293 -5z m460 -53
c30 -8 73 -25 96 -39 39 -25 41 -28 57 -114 17 -90 17 -99 -12 -266 -12 -71
-125 -115 -274 -106 l-52 3 -3 255 c-1 140 0 260 3 267 6 17 113 17 185 0z"/>
<path d="M12885 6870 c-9 -15 11 -30 43 -30 13 0 37 -13 53 -29 l29 -29 0
-430 c0 -286 -4 -440 -11 -461 -11 -31 -24 -38 -84 -43 -22 -2 -30 -8 -30 -23
0 -19 8 -20 192 -23 184 -2 193 -2 203 18 8 15 8 21 -2 24 -7 3 -30 10 -50 16
-65 20 -68 32 -68 236 l0 182 31 6 c70 14 88 8 134 -41 25 -27 45 -56 45 -66
0 -11 13 -31 28 -45 15 -15 33 -46 40 -68 7 -24 23 -49 37 -58 16 -10 25 -26
25 -42 0 -14 13 -38 33 -58 17 -18 37 -41 42 -50 10 -16 79 -38 157 -49 31 -5
40 -2 48 14 9 15 7 21 -7 26 -24 8 -113 102 -113 118 0 8 -13 23 -30 35 -19
13 -30 30 -30 45 0 13 -13 37 -30 53 -16 17 -30 38 -30 47 0 9 -12 27 -27 41
-19 18 -55 92 -63 131 0 2 100 64 125 78 11 6 21 19 23 30 2 11 15 30 30 42
26 22 27 26 27 132 0 99 -2 112 -22 133 -72 75 -91 92 -135 114 -46 23 -58 25
-326 31 -220 5 -281 3 -287 -7z m461 -51 c32 -6 70 -18 84 -27 14 -9 34 -21
45 -27 26 -14 38 -99 31 -224 -5 -85 -8 -97 -32 -122 -46 -48 -125 -79 -202
-79 -37 0 -77 3 -89 6 l-23 6 0 233 c0 177 3 235 13 238 22 9 112 7 173 -4z"/>
<path d="M13890 6870 c-13 -9 -13 -11 0 -20 8 -5 27 -10 41 -10 33 0 63 -29
88 -85 18 -41 20 -68 20 -414 l0 -371 -25 -55 c-26 -56 -34 -61 -99 -67 -22
-2 -30 -8 -30 -23 0 -20 7 -20 385 -20 l385 0 6 45 c4 25 8 76 10 114 3 56 1
70 -13 79 -23 15 -30 5 -36 -53 -4 -42 -10 -55 -38 -79 -55 -45 -125 -61 -260
-61 -176 0 -164 -19 -164 255 0 212 1 225 19 235 11 6 87 10 175 10 85 0 161
3 169 6 9 3 13 13 10 25 -5 18 -16 19 -179 19 -161 0 -174 1 -184 19 -12 23
-14 370 -2 388 10 17 271 19 328 4 53 -14 60 -24 69 -91 10 -87 12 -90 52 -90
l36 0 -7 113 c-4 61 -12 117 -17 122 -14 14 -719 19 -739 5z"/>
<path d="M17200 5079 c0 -5 5 -7 10 -4 6 3 10 8 10 11 0 2 -4 4 -10 4 -5 0
-10 -5 -10 -11z"/>
</g>
</svg>
